<svg width="1291" height="719" viewBox="0 0 1291 719" fill="none" xmlns="http://www.w3.org/2000/svg">
<rect x="1136.26" y="42.1919" width="107.204" height="24.699" transform="rotate(-23.1765 1136.26 42.1919)" fill="#7F8CFF"/>
<path d="M1282.36 72.7545C1277.39 63.9303 1270.41 56.4009 1261.99 50.7757C1253.56 45.1505 1243.94 41.5878 1233.88 40.376C1223.83 39.1641 1213.63 40.3373 1204.11 43.8004C1194.59 47.2636 1186.02 52.9193 1179.1 60.3098C1172.17 67.7003 1167.08 76.6177 1164.25 86.3401C1161.41 96.0624 1160.9 106.316 1162.76 116.272C1164.62 126.227 1168.81 135.604 1174.97 143.643C1181.13 151.683 1189.09 158.158 1198.22 162.546L1210.24 137.531C1205.04 135.031 1200.51 131.342 1197 126.762C1193.49 122.182 1191.1 116.84 1190.04 111.169C1188.98 105.497 1189.27 99.6555 1190.89 94.1167C1192.51 88.5779 1195.4 83.4976 1199.35 79.2873C1203.3 75.0769 1208.18 71.8549 1213.6 69.8819C1219.02 67.909 1224.83 67.2406 1230.56 67.931C1236.29 68.6214 1241.77 70.6511 1246.57 73.8557C1251.37 77.0604 1255.35 81.3499 1258.18 86.377L1282.36 72.7545Z" fill="white"/>
<circle cx="408.163" cy="48.4126" r="13.5" fill="#7F8CFF"/>
<rect width="117.53" height="21.0255" transform="matrix(0.801365 0.598176 0.598176 -0.801365 8.52051 276.519)" fill="#7F8CFF"/>
<circle cx="33.8606" cy="327.942" r="24" transform="rotate(48.9435 33.8606 327.942)" fill="white"/>
<rect x="261.663" y="684.26" width="55.6001" height="9.94658" transform="rotate(-23.6989 261.663 684.26)" fill="white"/>
<path d="M290.793 683.595C288.649 688.617 288.588 694.285 290.622 699.352C292.657 704.419 296.622 708.47 301.644 710.614C306.666 712.758 312.333 712.82 317.401 710.785C322.468 708.75 326.519 704.786 328.663 699.764L290.793 683.595Z" fill="#7F8CFF"/>
<circle cx="1091.16" cy="479.413" r="37.5" fill="#7F8CFF"/>
</svg>
